<svg xmlns="http://www.w3.org/2000/svg" width="130" height="64" viewBox="0 0 130 64">
    <path fill="#FFF" fill-rule="evenodd" d="M0 6.759h10.372v32.665h6.107V6.76h10.425V1.103H0v5.656zm67.971 1.85c-.58-5.71-1.632-7.982-7.53-7.982-5.738 0-7.002 2.273-7.58 7.981l-2.528 23.998c-.21 1.533-.316 1.797-1.105 1.797-.79 0-.843-.264-1.054-1.797L45.648 8.608C44.962 2.9 43.803.628 38.013.628c-5.844 0-7.055 2.272-7.477 7.98l-2.474 30.816h6.107l2.264-30.393c.21-2.59.527-3.012 1.633-3.012 1.21 0 1.368.423 1.79 3.012l2.948 24.579c.421 4.017 1.685 5.814 6.423 5.814 4.844 0 6.002-1.797 6.424-5.814L58.599 9.03c.369-2.537.527-3.012 1.79-3.012 1.106 0 1.37.423 1.58 3.012l2.317 30.393h6.16L67.97 8.608zM98.93 39.423h6.108l-7.74-31.978C96.033 2.37 94.507.627 89.137.627c-5.213 0-7.003 1.797-8.161 6.819l-7.688 31.978h6.108l2.685-11.576h14.11l2.738 11.576zm9.209 2.903c6.597 0 11.946 4.841 11.946 10.814 0 5.972-5.35 10.814-11.946 10.814V42.327zm-2.892-.001c0 6.622-4.822 11.992-10.772 11.992-5.949 0-10.772-5.37-10.772-11.992h21.544zm-85.055.026v7.567c0 1.498.837 2.008 2.328 2.008 1.478 0 2.314-.51 2.314-2.008v-7.567h1.448v7.567c0 2.442-1.493 3.356-3.762 3.356-2.283 0-3.775-.914-3.775-3.356v-7.567h1.447zm-6.073 0c2.313 0 3.089 1.124 3.089 2.832 0 1.259-.448 2.038-1.418 2.397 1.328.405 1.716 1.304 1.716 2.547 0 1.694-.657 3.012-3.164 3.012h-2.253c-1.194 0-1.672-.48-1.672-1.678V44.03c0-1.198.478-1.678 1.672-1.678zm15.341 0v8.81c0 .42.21.63.627.63h3.895v1.348h-4.283c-1.194 0-1.671-.48-1.671-1.678v-9.11h1.432zm13.074 0l-3.269 4.18c-.432.615-.566.75-.566 1.004 0 .225.104.375.566.99l3.567 4.614h-1.686l-3.209-4.21c-.432-.614-.627-.93-.627-1.424 0-.494.165-.763.627-1.408l2.896-3.746h1.701zm-5.672 0V53.14H35.43V42.352h1.432zm-22.535 5.903H11.85v2.907c0 .42.209.63.627.63h1.865c1.328 0 1.702-.63 1.702-1.753 0-1.124-.389-1.784-1.717-1.784zm-.208-4.554h-1.642c-.418 0-.627.21-.627.629v2.667h1.955c1.507 0 1.94-.465 1.94-1.663 0-1.02-.358-1.633-1.626-1.633zM118.91 27.43c5.949 0 10.772 5.37 10.772 11.993h-21.544c0-6.623 4.822-11.992 10.772-11.992zM89.136 6.072c1.738 0 2.212.688 2.58 2.38l3.265 13.953H83.29L86.61 8.45c.421-1.691.842-2.378 2.527-2.378z"/>
</svg>
